<svg xmlns="http://www.w3.org/2000/svg" width="18.3" height="17.3" viewBox="0 0 18.3 17.3">
  <g id="组_50" data-name="组 50" transform="translate(-75.15 -160.75)">
    <path id="路径_71" data-name="路径 71" d="M20.689,40.9a.756.756,0,0,1-.616-.291,1.331,1.331,0,0,1-.237-.729,9.119,9.119,0,0,1,.095-1.02,7.535,7.535,0,0,0,.095-1.457A7.793,7.793,0,0,1,17.8,32.06c0-4.469,4.026-8.16,9-8.16s9,3.643,9,8.16-4.026,8.16-9,8.16a9.908,9.908,0,0,1-3.884-.777,12.4,12.4,0,0,0-1.611,1.166l-.095.1a.978.978,0,0,1-.521.194Z" transform="translate(57.5 137)" fill="#0098ee" stroke="#0098ee" stroke-width="0.3"/>
    <path id="路径_67" data-name="路径 67" d="M373.294,241.668h-6.219c-.348,0-.609-.379-.609-.884s.261-.884.609-.884h6.219c.348,0,.609.379.609.884s-.261.884-.609.884Zm0,4.61h-7.785c-.348,0-.609-.379-.609-.884s.261-.884.609-.884h7.785c.348,0,.609.379.609.884s-.261.884-.609.884Zm0,0" transform="translate(-285.1 -75.141)" fill="#fff"/>
  </g>
</svg>
