<svg xmlns="http://www.w3.org/2000/svg" width="19.48" height="18.402" viewBox="0 0 19.48 18.402">
  <g id="组_48" data-name="组 48" transform="translate(-16.26 -24.648)">
    <g id="组_49" data-name="组 49">
      <path id="路径_68" data-name="路径 68" d="M34.911,47.9c-1.243,0-1.94-.755-2.785-1.662-.3-.3-.6-.655-.945-.957a3.555,3.555,0,0,0-2.686-.957H26.406a3.555,3.555,0,0,0-2.686.957c-.348.3-.647.655-.945.957A3.667,3.667,0,0,1,19.99,47.9a1.506,1.506,0,0,1-1.194-.554c-.8-.957-.995-3.072-.6-6.7.547-4.986,2.686-6.748,4.576-6.748a3.105,3.105,0,0,1,1.641.6,5.1,5.1,0,0,0,3.084.906,4.888,4.888,0,0,0,3.084-.906,2.957,2.957,0,0,1,1.641-.6c1.84,0,4.029,1.763,4.576,6.748.4,3.626.2,5.741-.6,6.7a1.98,1.98,0,0,1-1.293.554Z" transform="translate(-1.5 -5.1)" fill="#0098ee" stroke="#0098ee" stroke-miterlimit="10" stroke-width="0.5"/>
      <path id="路径_69" data-name="路径 69" d="M35.848,25.847c-1.59.95-1.855,3.941-1.06,5.745.227.475.8.047.606-.427-.644-1.377-.454-3.8.8-4.558.379-.285.038-1-.341-.76Z" transform="translate(-8.853 -1)" fill="#0098ee" stroke="#0098ee" stroke-width="0.3"/>
      <path id="路径_74" data-name="路径 74" d="M45.574,37.837A.837.837,0,1,1,44.737,37a.9.9,0,0,1,.837.837Zm0,0" transform="translate(-14.825 -4.638)" fill="#fff"/>
      <path id="路径_75" data-name="路径 75" d="M45.574,44.937a.837.837,0,1,1-.837-.837.833.833,0,0,1,.837.837Zm0,0" transform="translate(-14.825 -8.436)" fill="#fff"/>
      <path id="路径_76" data-name="路径 76" d="M48.237,42.174a.837.837,0,1,1,.837-.837.833.833,0,0,1-.837.837Zm0,0" transform="translate(-16.698 -6.51)" fill="#fff"/>
      <path id="路径_77" data-name="路径 77" d="M41.237,42.174a.837.837,0,1,1,.837-.837.9.9,0,0,1-.837.837Zm0,0" transform="translate(-12.953 -6.51)" fill="#fff"/>
      <path id="路径_78" data-name="路径 78" d="M26.871,39.006H25.522V37.658a.558.558,0,0,0-1.116,0v1.348H23.058a.558.558,0,1,0,0,1.116h1.348v1.348a.558.558,0,0,0,1.116,0V40.122h1.348a.558.558,0,1,0,0-1.116Zm0,0" transform="translate(-3.376 -4.691)" fill="#fff"/>
    </g>
  </g>
</svg>
