<svg xmlns="http://www.w3.org/2000/svg" width="19.48" height="18.402" viewBox="0 0 19.48 18.402">
  <g id="组_47" data-name="组 47" transform="translate(-16.26 -24.648)">
    <path id="路径_68" data-name="路径 68" d="M34.911,47.9c-1.243,0-1.94-.755-2.785-1.662-.3-.3-.6-.655-.945-.957a3.555,3.555,0,0,0-2.686-.957H26.406a3.555,3.555,0,0,0-2.686.957c-.348.3-.647.655-.945.957A3.667,3.667,0,0,1,19.99,47.9a1.506,1.506,0,0,1-1.194-.554c-.8-.957-.995-3.072-.6-6.7.547-4.986,2.686-6.748,4.576-6.748a3.105,3.105,0,0,1,1.641.6,5.1,5.1,0,0,0,3.084.906,4.888,4.888,0,0,0,3.084-.906,2.957,2.957,0,0,1,1.641-.6c1.84,0,4.029,1.763,4.576,6.748.4,3.626.2,5.741-.6,6.7a1.98,1.98,0,0,1-1.293.554Zm-6.416-4.281a4.116,4.116,0,0,1,3.084,1.158l.995,1.007c.8.856,1.343,1.46,2.338,1.46a.891.891,0,0,0,.746-.353c.647-.755.8-2.871.448-6.194-.5-4.583-2.338-6.194-3.979-6.194a2.2,2.2,0,0,0-1.293.5,5.5,5.5,0,0,1-3.382,1.007,5.38,5.38,0,0,1-3.382-1.007,2.2,2.2,0,0,0-1.293-.5c-1.592,0-3.482,1.612-3.979,6.194q-.522,4.986.448,6.194a.891.891,0,0,0,.746.353c.995,0,1.542-.6,2.338-1.46.3-.3.6-.655.995-1.007A4.433,4.433,0,0,1,26.9,43.67H28.1a.959.959,0,0,1,.4-.05Zm0,0" transform="translate(-1.5 -5.1)" fill="#262626" stroke="#262626" stroke-miterlimit="10" stroke-width="0.5"/>
    <path id="路径_69" data-name="路径 69" d="M35.848,25.847c-1.59.95-1.855,3.941-1.06,5.745.227.475.8.047.606-.427-.644-1.377-.454-3.8.8-4.558.379-.285.038-1-.341-.76Z" transform="translate(-8.853 -1)" fill="#262626" stroke="#262626" stroke-width="0.3"/>
  </g>
</svg>
