<svg xmlns="http://www.w3.org/2000/svg" width="22" height="22" viewBox="0 0 22 22">
  <g id="文件_1_" data-name="文件(1)" transform="translate(-139.418 -66.418)">
    <path id="路径_100" data-name="路径 100" d="M140.509,66h20.981a.471.471,0,0,1,.509.422V87.578a.471.471,0,0,1-.509.422H140.509a.471.471,0,0,1-.509-.422V66.422A.471.471,0,0,1,140.509,66Zm2.349,17.287a.282.282,0,0,0-.306.253v.883a.282.282,0,0,0,.306.253h16.279a.282.282,0,0,0,.306-.253V83.54a.282.282,0,0,0-.306-.253Zm9.3-13.486a.282.282,0,0,0-.306.253V73.1a.282.282,0,0,0,.306.253h6.977a.282.282,0,0,0,.306-.253V70.054a.282.282,0,0,0-.306-.253Zm-9.3,8.1a.282.282,0,0,0-.306.253v.883a.282.282,0,0,0,.306.253h16.279a.282.282,0,0,0,.306-.253v-.883a.282.282,0,0,0-.306-.253Z" transform="translate(-0.582 0.418)" fill="#0098ee"/>
  </g>
</svg>
