<svg xmlns="http://www.w3.org/2000/svg" width="24.004" height="21.506" viewBox="0 0 24.004 21.506">
  <g id="组_72" data-name="组 72" transform="translate(-40.033 -41.694)">
    <g id="组_59" data-name="组 59" transform="translate(40.7 42.2)">
      <path id="路径_37" data-name="路径 37" d="M168.361,486.785h-1.6v-1.627a.806.806,0,0,0-1.613,0v1.627h-1.6a.806.806,0,1,0,0,1.613h1.6v1.571a.806.806,0,1,0,1.613,0V488.4h1.6a.806.806,0,1,0,0-1.613Zm5.861-2.28a.932.932,0,1,0,.932.932A.932.932,0,0,0,174.223,484.5Zm0,4.422a.932.932,0,1,0,.932.932A.931.931,0,0,0,174.223,488.927Zm2.211-2.211a.932.932,0,1,0,.932.931A.931.931,0,0,0,176.434,486.716Zm-4.422,0a.932.932,0,1,0,.932.931A.931.931,0,0,0,172.012,486.716Z" transform="translate(-158.144 -475.415)" fill="#f37d40"/>
    </g>
    <path id="文件_2_" data-name="文件(2)" d="M26.569,24.7V9.674a1.5,1.5,0,0,0-1.662-1.655s-9.925.012-9.4,0a1.137,1.137,0,0,1-.85-.3s-.395-.68-1.105-1.754c-.745-1.127-1.608-.943-1.608-.943H4.627a1.961,1.961,0,0,0-2.05,1.95V24.6c0,2.176,1.643,1.906,1.643,1.906H25.058c1.757,0,1.511-1.8,1.511-1.8Zm-1.492-.892a1.215,1.215,0,0,1-1.215,1.215H5.286A1.215,1.215,0,0,1,4.071,23.81V11.23a1.216,1.216,0,0,1,1.215-1.215H23.862a1.216,1.216,0,0,1,1.215,1.215Z" transform="translate(37.456 36.683)" fill="#f37d40"/>
  </g>
</svg>
