<svg xmlns="http://www.w3.org/2000/svg" xmlns:xlink="http://www.w3.org/1999/xlink" width="27.859" height="24" viewBox="0 0 27.859 24">
  <defs>
    <linearGradient id="linear-gradient" x1="0.5" y1="1" x2="0.5" gradientUnits="objectBoundingBox">
      <stop offset="0" stop-color="#fe4b83"/>
      <stop offset="1" stop-color="#fe4b83"/>
    </linearGradient>
  </defs>
  <g id="组_54" data-name="组 54" transform="translate(5.854 4.927)">
    <path id="路径_51" data-name="路径 51" d="M407.8,553.7h2.993v2.8H407.8Zm3.761,0h3v2.8h-3Zm0,0" transform="translate(-399.248 -547.178)" fill="#fe4b83"/>
    <path id="路径_52" data-name="路径 52" d="M313.119,454h-12.81a.7.7,0,0,0-.7.7,3.381,3.381,0,0,1-3.369,3.377.788.788,0,0,0-.2.023.691.691,0,0,0-.5.674v12.81a2.782,2.782,0,0,0,2.781,2.781h14.792a2.794,2.794,0,0,0,2.789-2.781V456.789A2.8,2.8,0,0,0,313.119,454m-3.142,12h-.752v-.658h-3.009v3.565h-.776v-3.565h-2.993V466H301.7v-4.92h3.745V459.2h.776v1.88h3.761ZM293.5,455.88" transform="translate(-293.903 -455.29)" fill="url(#linear-gradient)"/>
    <path id="路径_50" data-name="路径 50" d="M107.839,480.625a3.27,3.27,0,0,1-1.557.325,2.484,2.484,0,0,1-1.959-.817,3.17,3.17,0,0,1-.724-2.179,3.4,3.4,0,0,1,.809-2.342,2.664,2.664,0,0,1,2.091-.912,3.346,3.346,0,0,1,1.339.231v1.247a2.238,2.238,0,0,0-1.254-.362,1.6,1.6,0,0,0-1.282.566,2.227,2.227,0,0,0-.483,1.483,2.144,2.144,0,0,0,.454,1.43,1.525,1.525,0,0,0,1.23.545,2.368,2.368,0,0,0,1.329-.393v1.179Zm5.625.22H112.3v-2.5h-2.328v2.5h-1.164v-6.051h1.164v2.441H112.3v-2.441h1.164Zm0,0" transform="translate(-109.454 -479.627)" fill="#fe4b83"/>
  </g>
</svg>
