<svg xmlns="http://www.w3.org/2000/svg" width="16" height="16" viewBox="0 0 16 16">
  <g id="组_46" data-name="组 46" transform="translate(-356 -234)">
    <path id="路径_66" data-name="路径 66" d="M373.493,234H362.507A2.41,2.41,0,0,0,360,236.278v9.683A4.243,4.243,0,0,0,364.427,250h9.067A2.41,2.41,0,0,0,376,247.722V236.278A2.41,2.41,0,0,0,373.493,234Zm1.44,13.773-.107,0" transform="translate(-4 0)" fill="#0098ee"/>
    <path id="路径_67" data-name="路径 67" d="M373.294,241.668h-6.219c-.348,0-.609-.379-.609-.884s.261-.884.609-.884h6.219c.348,0,.609.379.609.884s-.261.884-.609.884Zm0,4.61h-7.785c-.348,0-.609-.379-.609-.884s.261-.884.609-.884h7.785c.348,0,.609.379.609.884s-.261.884-.609.884Zm0,0" transform="translate(-4.9 -3.041)" fill="#fff"/>
  </g>
</svg>
