<svg xmlns="http://www.w3.org/2000/svg" width="16.1" height="16.1" viewBox="0 0 16.1 16.1">
  <g id="资讯" transform="translate(-21.95 -28.95)">
    <g id="组_45" data-name="组 45" transform="translate(22 29)">
      <path id="路径_73" data-name="路径 73" d="M35.493,29H24.507A2.41,2.41,0,0,0,22,31.278v9.683A4.243,4.243,0,0,0,26.427,45h9.067A2.41,2.41,0,0,0,38,42.722V31.278A2.41,2.41,0,0,0,35.493,29Zm1.333,13.773a1.292,1.292,0,0,1-1.333,1.243H26.427a3.119,3.119,0,0,1-3.253-2.951V31.278a1.292,1.292,0,0,1,1.333-1.243H35.493a1.292,1.292,0,0,1,1.333,1.243v11.5Zm0,0" transform="translate(-22 -29)" fill="#262626" stroke="#262626" stroke-width="0.1"/>
    </g>
  </g>
</svg>
