<svg xmlns="http://www.w3.org/2000/svg" width="18.101" height="18.1" viewBox="0 0 18.101 18.1">
  <path id="路径_72" data-name="路径 72" d="M22.852,31.61h0m13.8,5.312v0m0-9.851h0m.523,13.41A8.03,8.03,0,0,0,36.34,37.8c-.1-.155-.157-.309-.261-.464h0a8.47,8.47,0,0,0-1.516-1.857h0a2.976,2.976,0,0,0-.418-.361A9.139,9.139,0,0,0,30.9,33.312c.209-.1.418-.258.627-.361.209-.155.418-.361.627-.516a5.48,5.48,0,0,0,1.673-3.868A5.273,5.273,0,0,0,32.158,24.7a5.578,5.578,0,0,0-3.921-1.6h-.1a5.578,5.578,0,0,0-3.921,1.6,5.48,5.48,0,0,0-1.673,3.868,5.273,5.273,0,0,0,1.673,3.868,5.521,5.521,0,0,0,.627.516,3.913,3.913,0,0,0,.627.361,8.713,8.713,0,0,0-3.241,1.805,2.608,2.608,0,0,0-.418.361,10.292,10.292,0,0,0-1.516,1.857,2.082,2.082,0,0,0-.261.464,8.03,8.03,0,0,0-.836,2.682.534.534,0,0,0,.471.619h.1a.5.5,0,0,0,.418-.464,7.7,7.7,0,0,1,2.353-4.487,7.938,7.938,0,0,1,5.542-2.321h0a8.675,8.675,0,0,1,5.886,2.321,7.856,7.856,0,0,1,2.113,4.487c.052.206.1.413.314.464h.1c.523-.052.732-.309.68-.619M28.237,32.9h0a4.727,4.727,0,0,1-4.548-3.352V29.5a3.133,3.133,0,0,1-.1-.98,5.638,5.638,0,0,1,.1-.98v-.052a4.8,4.8,0,0,1,4.548-3.507h0a4.8,4.8,0,0,1,4.548,3.507v.052a3.133,3.133,0,0,1,.1.98,5.638,5.638,0,0,1-.1.98v.052a4.775,4.775,0,0,1-4.5,3.352h-.052" transform="translate(-19.134 -23.05)" fill="#262626" stroke="#262626" stroke-width="0.1"/>
</svg>
