<svg xmlns="http://www.w3.org/2000/svg" width="18.101" height="18.1" viewBox="0 0 18.101 18.1">
  <g id="组_52" data-name="组 52" transform="translate(-18.634 -23.05)">
    <path id="路径_72" data-name="路径 72" d="M22.852,31.61h0m13.8,5.312v0m0-9.851h0m.523,13.41A8.03,8.03,0,0,0,36.34,37.8c-.1-.155-.157-.309-.261-.464h0a8.47,8.47,0,0,0-1.516-1.857h0a2.976,2.976,0,0,0-.418-.361A9.139,9.139,0,0,0,30.9,33.312c.209-.1.418-.258.627-.361.209-.155.418-.361.627-.516a5.48,5.48,0,0,0,1.673-3.868A5.273,5.273,0,0,0,32.158,24.7a5.578,5.578,0,0,0-3.921-1.6h-.1a5.578,5.578,0,0,0-3.921,1.6,5.48,5.48,0,0,0-1.673,3.868,5.273,5.273,0,0,0,1.673,3.868,5.521,5.521,0,0,0,.627.516,3.913,3.913,0,0,0,.627.361,8.713,8.713,0,0,0-3.241,1.805,2.608,2.608,0,0,0-.418.361,10.292,10.292,0,0,0-1.516,1.857,2.082,2.082,0,0,0-.261.464,8.03,8.03,0,0,0-.836,2.682.534.534,0,0,0,.471.619h.1c.209-.052,16.416-.052,16.625,0h.1c.523-.052.732-.309.68-.619" transform="translate(-0.5)" fill="#0098ee" stroke="#0098ee" stroke-width="0.1"/>
    <path id="路径_79" data-name="路径 79" d="M36.084,38.735a.354.354,0,0,0-.485.194s-.63,1.405-1.841,1.405a2.079,2.079,0,0,1-1.745-1.405.383.383,0,0,0-.727.242,2.881,2.881,0,0,0,2.471,1.89,2.9,2.9,0,0,0,2.52-1.89c.1-.145,0-.339-.194-.436Zm0,0" transform="translate(-6.334 -9.731)" fill="#fff"/>
  </g>
</svg>
