<svg xmlns="http://www.w3.org/2000/svg" xmlns:xlink="http://www.w3.org/1999/xlink" width="16" height="16" viewBox="0 0 16 16">
  <defs>
    <linearGradient id="linear-gradient" x1="-0.325" y1="-0.159" x2="1" y2="1.27" gradientUnits="objectBoundingBox">
      <stop offset="0" stop-color="#fe4b83"/>
      <stop offset="1" stop-color="#e83b71"/>
    </linearGradient>
    <linearGradient id="linear-gradient-2" x1="0.223" y1="0.054" x2="1" y2="1" gradientUnits="objectBoundingBox">
      <stop offset="0" stop-color="#fe4b83"/>
      <stop offset="1" stop-color="#d6255c"/>
    </linearGradient>
  </defs>
  <g id="发布_1_" data-name="发布(1)" transform="translate(-207.243 -192.92)">
    <path id="路径_33" data-name="路径 33" d="M744.515,212.14a1.281,1.281,0,0,0-.253-.022h.037a1.645,1.645,0,0,1,.216.022Zm0,0" transform="translate(-522.92 -18.694)" fill="#4bcdfe"/>
    <path id="路径_34" data-name="路径 34" d="M683.422,213.841a1.427,1.427,0,0,0-.181-.741,1.92,1.92,0,0,0-.362-.476,1.784,1.784,0,0,0-.895-.481,1.638,1.638,0,0,0-.216-.022h-.037a1.334,1.334,0,0,0-.406.063,1.306,1.306,0,0,0-.436.242q-.165.141-.413.383t-.428.415l2.264,2.3q.105-.094.225-.219.105-.109.248-.25t.323-.328a1.249,1.249,0,0,0,.241-.391,1.168,1.168,0,0,0,.075-.407c0-.03,0-.059,0-.088Zm0,0" transform="translate(-460.39 -18.698)" fill="#fe4b83"/>
    <path id="路径_35" data-name="路径 35" d="M388.811,288.2l-1,.954-.9.859c-.272.259-1.034.965-1.215,1.141l-.347.336a1.961,1.961,0,0,0-.266.3,1.932,1.932,0,0,0-.167.3,2.537,2.537,0,0,0-.161.389q-.1.283-.2.618t-.2.648a3.8,3.8,0,0,0-.118.477.534.534,0,0,0,.062.436q.111.129.446.094.161-.023.489-.106t.693-.194q.365-.112.7-.23t.508-.2a1.56,1.56,0,0,0,.334-.188q.161-.118.285-.224.05-.035.309-.283t.656-.63c.264-.255,1.1-1.024,1.426-1.33l.991-.954,2.586-2.5-2.336-2.158-2.566,2.441Zm0,0" transform="translate(-172.169 -90.836)" fill="url(#linear-gradient)"/>
    <path id="路径_36" data-name="路径 36" d="M222.685,197.709l-1.72,1.732c-.573.556-2.017,1.952-2.476,2.415s-.839.845-1.14,1.144-.48.47-.537.513q-.215.193-.495.406a2.682,2.682,0,0,1-.581.342,9.384,9.384,0,0,1-.881.364q-.581.214-1.215.417t-1.2.353q-.57.15-.85.192-.58.064-.774-.171a1.007,1.007,0,0,1-.107-.791,7.159,7.159,0,0,1,.2-.866q.161-.567.344-1.176t.355-1.122a4.744,4.744,0,0,1,.279-.706,3.558,3.558,0,0,1,.29-.545,3.52,3.52,0,0,1,.462-.545q.129-.128.6-.609c.315-.321,1.637-1.6,2.11-2.073l1.57-1.561,1.742-1.732.773-.769h-8.526a3.6,3.6,0,0,0-3.664,3.334h0v9.332h0a3.6,3.6,0,0,0,3.664,3.334h8.664a3.6,3.6,0,0,0,3.664-3.334h0v-8.44Z" transform="translate(0 0)" fill="url(#linear-gradient-2)"/>
  </g>
</svg>
