<svg xmlns="http://www.w3.org/2000/svg" width="32" height="32" viewBox="0 0 32 32">
  <g id="_" data-name="√" transform="translate(-176.5 -296.25)">
    <g id="路径_18" data-name="路径 18" transform="translate(176.5 296.25)" fill="none">
      <path d="M16,0A16,16,0,1,1,0,16,16,16,0,0,1,16,0Z" stroke="none"/>
      <path d="M 16 1.5 C 12.12690925598145 1.5 8.485639572143555 3.008260726928711 5.746950149536133 5.746950149536133 C 3.008260726928711 8.485639572143555 1.5 12.12690925598145 1.5 16 C 1.5 19.87308883666992 3.008260726928711 23.51436042785645 5.746950149536133 26.25304985046387 C 8.485639572143555 28.99173927307129 12.12690925598145 30.5 16 30.5 C 19.87308883666992 30.5 23.51436042785645 28.99173927307129 26.25304985046387 26.25304985046387 C 28.99173927307129 23.51436042785645 30.5 19.87308883666992 30.5 16 C 30.5 12.12690925598145 28.99173927307129 8.485639572143555 26.25304985046387 5.746950149536133 C 23.51436042785645 3.008260726928711 19.87308883666992 1.5 16 1.5 M 16 0 C 24.83654975891113 0 32 7.163440704345703 32 16 C 32 24.83654975891113 24.83654975891113 32 16 32 C 7.163440704345703 32 0 24.83654975891113 0 16 C 0 7.163440704345703 7.163440704345703 0 16 0 Z" stroke="none" fill="#0cbe1e"/>
    </g>
    <g id="X" transform="translate(188.439 303.179)" fill="#8a8a8a">
      <path d="M 1.925092577934265 14.47676086425781 C 1.914486169815063 14.47281169891357 1.902390122413635 14.4677095413208 1.888995051383972 14.46116256713867 L 1.733485102653503 14.38515281677246 L 1.564265131950378 14.42155265808105 C 1.54687511920929 14.42529201507568 1.525325059890747 14.42727279663086 1.5019451379776 14.42727279663086 C 1.344285130500793 14.42728233337402 1.154485106468201 14.34314250946045 1.076125144958496 14.26454257965088 L -3.383054971694946 9.806241989135742 C -3.47129487991333 9.71772289276123 -3.464274883270264 9.565942764282227 -3.366824865341187 9.46848201751709 C -3.299024820327759 9.400482177734375 -3.223104953765869 9.390412330627441 -3.183824777603149 9.390412330627441 C -3.141524791717529 9.390412330627441 -3.080235004425049 9.401242256164551 -3.028464794158936 9.452842712402344 L 1.253155112266541 13.73534202575684 L 1.606705069541931 14.08896255493164 L 1.960295081138611 13.73537254333496 L 8.650875091552734 7.044782638549805 L 12.11160087585449 3.583184480667114 C 12.1627254486084 3.602455854415894 12.24199390411377 3.646458387374878 12.32281494140625 3.727032423019409 C 12.4024829864502 3.806939601898193 12.44636631011963 3.885790348052979 12.46574687957764 3.937004089355469 L 1.925092577934265 14.47676086425781 Z" stroke="none"/>
      <path d="M 1.972405076026917 14.98924255371094 C 1.879735112190247 14.9892520904541 1.775135159492493 14.96204280853271 1.669425129890442 14.91037273406982 C 1.615975499153137 14.92187118530273 1.559638619422913 14.92727375030518 1.501974701881409 14.92727661132813 C 1.217827916145325 14.92729377746582 0.9001474976539612 14.79622173309326 0.7220250964164734 14.6175422668457 L -3.73657488822937 10.15983200073242 C -4.020074844360352 9.875432014465332 -4.012875080108643 9.407432556152344 -3.720374822616577 9.114932060241699 C -3.571286201477051 8.965385437011719 -3.376551628112793 8.890412330627441 -3.183825969696045 8.890412330627441 C -2.998439073562622 8.890412330627441 -2.81491494178772 8.959733963012695 -2.675474882125854 9.098731994628906 L 1.60674512386322 13.38182258605957 L 8.297325134277344 6.691232204437256 L 11.83072471618652 3.156932353973389 C 11.88915157318115 3.098808526992798 11.97072124481201 3.071125507354736 12.06438255310059 3.071125507354736 C 12.24917316436768 3.071125507354736 12.48111438751221 3.178819179534912 12.67582511901855 3.372932434082031 C 12.96832466125488 3.666332483291626 13.06552505493164 4.044332504272461 12.89182472229004 4.218032360076904 L 2.206125020980835 14.90283203125 C 2.147895097732544 14.96137237548828 2.066245079040527 14.98924255371094 1.972405076026917 14.98924255371094 Z" stroke="none" fill="#0cbe1e"/>
    </g>
  </g>
</svg>
