<svg xmlns="http://www.w3.org/2000/svg" width="76.146" height="60.971" viewBox="0 0 76.146 60.971">
  <g id="公用-加载异常" transform="translate(-185.657 -109.929)">
    <path id="路径_58" data-name="路径 58" d="M195.219,158.229a.6.6,0,0,0-.583.583.5.5,0,0,0,.156.389.583.583,0,0,0,.427.155H198.1a.583.583,0,1,0,0-1.166h-2.876Zm56.011,8.823a.584.584,0,0,0,0-1.166H231.1a.584.584,0,0,0,0,1.166Zm5.636-1.127a.584.584,0,0,0,0,1.166h4.392a.584.584,0,0,0,0-1.166Zm-49.442-2.682h35.255a.583.583,0,1,0,0-1.166H207.424a.583.583,0,1,0,0,1.166Zm16.325,7.657a.544.544,0,1,0,0-1.088h-4.431a.544.544,0,1,0,0,1.088Zm-22.311-12.516a.5.5,0,0,0-.155.389.6.6,0,0,0,.583.583h8.979a.6.6,0,0,0,.583-.583c0-.156-.272-.428-.544-.583h-9.018A.875.875,0,0,0,201.439,158.384Zm12.2,11.428v0H186.2a.544.544,0,0,0,0,1.088h27.442a.544.544,0,1,0,0-1.088ZM201.827,120.6l-1.355-.014.014-1.366a.544.544,0,0,0-1.088,0l-.014,1.355-1.405-.014a.544.544,0,0,0,0,1.088l1.394.014-.014,1.4a.556.556,0,0,0,.544.544.531.531,0,0,0,.544-.544l.014-1.394,1.4.014s.039,0,0,.039a.564.564,0,1,0-.039-1.127Zm47.714,3.195-.968.948-.956-.976a.544.544,0,1,0-.77.77l.949.968-1,.984a.544.544,0,0,0,.77.77l1-.976.983,1a.556.556,0,0,0,.77,0,.531.531,0,0,0,0-.77l-.976-1,1-.983s.028-.028.027.027a.564.564,0,1,0-.824-.769ZM241,111.95l-1.452-.014.014-1.463a.544.544,0,1,0-1.088,0l-.014,1.452-1.463-.014a.544.544,0,0,0,0,1.088l1.452.014-.014,1.463a.544.544,0,1,0,1.088,0l.014-1.452,1.463.014a.544.544,0,0,0,0-1.088Zm-45.428,13.834-.733.715-.752-.77a.556.556,0,0,0-.77,0,.532.532,0,0,0,0,.77l.742.76-.77.751a.532.532,0,0,0,0,.77.556.556,0,0,0,.77,0l.76-.742.724.742a.544.544,0,1,0,.77-.77l-.715-.732.742-.724a.556.556,0,0,0,0-.77A.531.531,0,0,0,195.569,125.785Zm34.506-14.51H210.64a5.053,5.053,0,0,0-5.286,4.781v32.456c0,2.6,2.332,4.664,5.286,4.664h25.615c2.954,0,5.286-2.06,5.286-4.664v-26.82l-11.466-10.417Zm10.184,37.237c0,1.9-1.749,3.382-4,3.382H210.641c-2.254,0-4-1.477-4-3.382V116.055a3.766,3.766,0,0,1,4-3.5h18.93l10.689,9.756v26.2Z" transform="translate(0)" fill="#c7c7c7"/>
    <path id="路径_59" data-name="路径 59" d="M492.34,156.831a.5.5,0,0,0-.155.389.6.6,0,0,0,.583.583h8.979a.6.6,0,0,0,.583-.583c0-.156-.272-.428-.544-.583h-9.018A.875.875,0,0,0,492.34,156.831Zm17.19-7.268a.655.655,0,0,0-.661-.661H492.855a.655.655,0,0,0-.661.661.633.633,0,0,0,.661.661h16.014A.681.681,0,0,0,509.53,149.563Zm-.01-7.58a.655.655,0,0,0-.661-.661H492.845a.655.655,0,0,0-.661.661.633.633,0,0,0,.661.661h16.014A.68.68,0,0,0,509.52,141.983Zm.879-15.059a.718.718,0,0,0-.467.194.644.644,0,0,0-.194.467v6.88a4.554,4.554,0,0,0,4.548,4.548h7.7a.716.716,0,0,0,.466-.194.644.644,0,0,0,.195-.467.717.717,0,0,0-.195-.466.643.643,0,0,0-.466-.194h-7.7a3.218,3.218,0,0,1-3.226-3.226v-6.88a.711.711,0,0,0-.661-.661Z" transform="translate(-281.414 -15.401)" fill="#c7c7c7"/>
    <path id="路径_62" data-name="路径 62" d="M316.984,340.239a2.155,2.155,0,1,0,2.155,2.155A2.155,2.155,0,0,0,316.984,340.239Zm0,3.389a1.234,1.234,0,1,1,1.234-1.234A1.234,1.234,0,0,1,316.984,343.628Z" transform="translate(-117.061 -208.717)" fill="#c7c7c7"/>
    <path id="路径_63" data-name="路径 63" d="M830.582,165.361m-1.123,0a1.123,1.123,0,1,0,1.123-1.123A1.123,1.123,0,0,0,829.459,165.361Z" transform="translate(-583.443 -49.217)" fill="#c7c7c7"/>
    <path id="路径_64" data-name="路径 64" d="M903.681,620.053m-1.123,0a1.123,1.123,0,1,0,1.123-1.123A1.123,1.123,0,0,0,902.558,620.053Z" transform="translate(-649.689 -461.28)" fill="#c7c7c7"/>
    <path id="异常_1_" data-name="异常 (1)" d="M74.87,66.4a6.35,6.35,0,1,0,0,8.975A6.359,6.359,0,0,0,74.87,66.4ZM71.38,75.34H69.453V73.592H71.38Zm.279-6.628-.4,4.163H69.52l-.4-4.163V66.444h2.54Z" transform="translate(173.83 77.369)" fill="#c7c7c7"/>
  </g>
</svg>
