<svg xmlns="http://www.w3.org/2000/svg" width="17" height="20" viewBox="0 0 17 20">
  <path id="密码" d="M197.85,118.307h-9.915v-1.9a4.4,4.4,0,0,1,4.574-4.287,4.26,4.26,0,0,1,4.4,4.287v.953a.472.472,0,1,0,.945,0V116.4a5.185,5.185,0,0,0-5.311-5.238h-.061a5.338,5.338,0,0,0-5.489,5.238v1.953a3.322,3.322,0,0,0-2.834,3.285v6.191a3.322,3.322,0,0,0,3.306,3.334h10.388a3.321,3.321,0,0,0,3.306-3.334v-6.191a3.326,3.326,0,0,0-3.306-3.335Zm2.361,9.524a2.373,2.373,0,0,1-2.361,2.381H187.463a2.372,2.372,0,0,1-2.36-2.381v-6.19a2.372,2.372,0,0,1,2.36-2.38h10.388a2.372,2.372,0,0,1,2.361,2.38v6.19Zm-7.556-6.667a2.854,2.854,0,0,0-.463,5.667c0,.017-.01.03-.01.047v1.429a.472.472,0,1,0,.945,0v-1.428a.466.466,0,0,0-.01-.047,2.854,2.854,0,0,0-.462-5.667Zm0,4.763a1.9,1.9,0,1,1,1.886-1.9,1.9,1.9,0,0,1-1.886,1.9Z" transform="translate(-184.157 -111.166)" fill="#a2a2a2"/>
</svg>
