<svg xmlns="http://www.w3.org/2000/svg" width="18" height="18.316" viewBox="0 0 18 18.316">
  <path id="我的" d="M173.979,160.054a.318.318,0,0,0-.118.019.454.454,0,0,1,.131-.019Zm13.571,5.407a.44.44,0,0,1,.01-.073A.2.2,0,0,0,187.55,165.461Zm.905-9.989a.015.015,0,0,0,0,0v-.012C188.456,155.463,188.456,155.468,188.456,155.473Zm-.906,0a.012.012,0,0,0,0,0c0-.005,0-.011,0-.016Zm.546,13.586a8.817,8.817,0,0,0-.828-2.723q-.124-.252-.263-.494v0a9.146,9.146,0,0,0-1.47-1.876h0q-.187-.184-.386-.358a9.057,9.057,0,0,0-3.2-1.815,5.554,5.554,0,0,0-2.6-10.417h-.138a5.553,5.553,0,0,0-3.846,9.479,5.58,5.58,0,0,0,.634.546,5.524,5.524,0,0,0,.61.392,9.057,9.057,0,0,0-3.2,1.815q-.2.174-.386.358a9.148,9.148,0,0,0-1.471,1.878q-.139.242-.263.494a8.817,8.817,0,0,0-.828,2.723.555.555,0,0,0,.476.624.575.575,0,0,0,.075.005.531.531,0,0,0,.067,0,.556.556,0,0,0,.431-.462,8.2,8.2,0,0,1,2.3-4.568,7.745,7.745,0,0,1,5.472-2.353h.012a7.747,7.747,0,0,1,5.46,2.353,8.2,8.2,0,0,1,2.3,4.568.556.556,0,0,0,.43.462h0a.53.53,0,0,0,.067,0,.576.576,0,0,0,.075-.005A.555.555,0,0,0,188.1,169.057Zm-8.83-7.692h-.033a4.647,4.647,0,0,1-4.425-3.387c-.006-.021-.011-.042-.016-.064a4.12,4.12,0,0,1-.121-.992,4.233,4.233,0,0,1,.121-1c.005-.022.011-.043.016-.065a4.755,4.755,0,0,1,4.459-3.554h.024a4.755,4.755,0,0,1,4.459,3.554c.006.022.011.043.016.065a4.232,4.232,0,0,1,.121,1,4.119,4.119,0,0,1-.121.992c-.005.021-.011.043-.016.064a4.647,4.647,0,0,1-4.425,3.387Z" transform="translate(-170.456 -151.37)" fill="#262626"/>
</svg>
