<svg xmlns="http://www.w3.org/2000/svg" width="87.058" height="61" viewBox="0 0 87.058 61">
  <g id="无数据" transform="translate(-65.991 -204.232)" opacity="0.6">
    <path id="路径_42" data-name="路径 42" d="M149.3,209.557H110.5v6.3h-8.731v44.122H94.6v1.256h31.135l4.339,4.329a3.129,3.129,0,1,0,4.518-4.33h5.971v-6.3H157.7v-1.261h-8.4Zm-10,50.423h-5.966l-5.035-5.024a3.142,3.142,0,0,0-3.809-.48l-.85-.922a8.452,8.452,0,1,0-.9.884l.816.886a3.126,3.126,0,0,0,.315,4.053l.605.6H103.032V217.116H139.3Zm-22-4.811a7.163,7.163,0,1,1,7.178-7.163A7.171,7.171,0,0,1,117.3,255.168Zm30.736-1.49h-7.471V215.856h-28.8v-5.043h36.267Zm14.719-40.87a3.678,3.678,0,1,0,3.685,3.678,3.682,3.682,0,0,0-3.685-3.678Zm0,6.094a2.417,2.417,0,1,1,2.422-2.417A2.42,2.42,0,0,1,162.754,218.9Z" transform="translate(-15.96 -1.297)" fill="#a2a2a2"/>
    <path id="路径_43" data-name="路径 43" d="M112.883,393.075l-3.239,3.239-3.239-3.239-.889.888,3.239,3.239-3.239,3.239.889.889,3.239-3.239,3.239,3.239.888-.889-3.239-3.239,3.239-3.239ZM74.44,409.117H84.5v1.257H74.44ZM101.008,371.4h16.179v1.257H101.008Zm0,6.287h22.465v1.257H101.008Zm0,6.286h10.954v1.257H101.008Z" transform="translate(-8.449 -150.413)" fill="#a2a2a2"/>
    <g id="矩形_20" data-name="矩形 20" transform="translate(71.907 231.453)" fill="#fff" stroke="#a2a2a2" stroke-width="1.2">
      <rect width="6.19" height="6.19" stroke="none"/>
      <rect x="0.6" y="0.6" width="4.99" height="4.99" fill="none"/>
    </g>
    <g id="路径_44" data-name="路径 44" transform="translate(81.097 204.232) rotate(45)" fill="#fff">
      <path d="M 2.504584074020386 7.214523315429688 L 0.8393766283988953 0.8393766283988953 L 7.214523315429688 2.504584074020386 L 2.504584074020386 7.214523315429688 Z" stroke="none"/>
      <path d="M 1.67876672744751 1.67876672744751 L 2.820550441741943 6.0500168800354 L 6.0500168800354 2.820550441741943 L 1.67876672744751 1.67876672744751 M 3.814697265625e-06 3.814697265625e-06 L 8.379003524780273 2.188623905181885 L 2.188623905181885 8.379003524780273 L 3.814697265625e-06 3.814697265625e-06 Z" stroke="none" fill="#a2a2a2"/>
    </g>
    <path id="路径_45" data-name="路径 45" d="M112.883,420.419l-3.239,3.239-3.239-3.239-.889.888,3.239,3.239-3.239,3.239.889.889,3.239-3.239,3.239,3.239.888-.889-3.239-3.239,3.239-3.239ZM74.44,436.461H84.5v1.257H74.44Z" transform="translate(39.22 -177.757)" fill="#a2a2a2"/>
    <path id="路径_46" data-name="路径 46" d="M74.44,409.117H84.5v1.257H74.44Z" transform="translate(68.551 -156.413)" fill="#a2a2a2"/>
  </g>
</svg>
