<svg xmlns="http://www.w3.org/2000/svg" width="60" height="62.014" viewBox="0 0 60 62.014">
  <g id="组_43" data-name="组 43" transform="translate(-158 -282.152)">
    <g id="technology" transform="translate(158 284.152)" opacity="0.6">
      <path id="circle7936" d="M4.964-2a1.035,1.035,0,0,0-.912.53,30,30,0,0,0,0,30,1.035,1.035,0,1,0,1.807-1.008L5.844,27.5a27.928,27.928,0,0,1,0-27.932,1.034,1.034,0,0,0-.358-1.419A1.036,1.036,0,0,0,4.964-2ZM55.072-2a1.035,1.035,0,0,0-.994,1.074,1.036,1.036,0,0,0,.145.49,27.928,27.928,0,0,1,0,27.932A1.035,1.035,0,0,0,56,28.557l.015-.026a30,30,0,0,0,0-30A1.034,1.034,0,0,0,55.072-2ZM16.806,3.172a1.035,1.035,0,0,0-.912.53,19.66,19.66,0,0,0,0,19.656A1.035,1.035,0,0,0,17.7,22.35l-.015-.026a17.582,17.582,0,0,1,0-17.587,1.035,1.035,0,0,0-.88-1.565Zm26.425,0a1.035,1.035,0,0,0-.849,1.564,17.582,17.582,0,0,1,0,17.587,1.035,1.035,0,1,0,1.776,1.061l.015-.026a19.66,19.66,0,0,0,0-19.656A1.034,1.034,0,0,0,43.23,3.173ZM28.707,22.647,18.692,58.7a1.035,1.035,0,0,0,1.678,1.055L30.034,51.3,39.7,59.758A1.035,1.035,0,0,0,41.375,58.7L31.36,22.647ZM30.034,25.6l5.128,18.462-5.128,4.487-5.128-4.487ZM24.291,46.277l4.172,3.651-6.851,5.995Zm11.485,0,2.679,9.645L31.6,49.928Z" transform="translate(-0.034 0)" fill="#a2a2a2"/>
    </g>
    <path id="异常_1_" data-name="异常 (1)" d="M76.239,66.631a7.151,7.151,0,1,0,0,10.108A7.162,7.162,0,0,0,76.239,66.631ZM72.309,76.7h-2.17V74.736h2.17Zm.315-7.465-.45,4.689h-1.96l-.45-4.689V66.685h2.86Z" transform="translate(116.975 226.307)" fill="#a2a2a2"/>
  </g>
</svg>
