<svg xmlns="http://www.w3.org/2000/svg" xmlns:xlink="http://www.w3.org/1999/xlink" width="32" height="32" viewBox="0 0 32 32">
  <defs>
    <clipPath id="clip-path">
      <rect width="32" height="32" fill="none"/>
    </clipPath>
    <clipPath id="clip-path-2">
      <rect width="16.423" height="16.202" fill="none"/>
    </clipPath>
  </defs>
  <g id="组_6" data-name="组 6" transform="translate(-171 -281)">
    <g id="X" transform="translate(-5 -15.25)">
      <g id="组_5" data-name="组 5">
        <g id="组件_3_1" data-name="组件 3 – 1" transform="translate(176 296.25)" clip-path="url(#clip-path)">
          <g id="路径_18" data-name="路径 18" fill="none">
            <path d="M16,0A16,16,0,1,1,0,16,16,16,0,0,1,16,0Z" stroke="none"/>
            <path d="M 16 1.5 C 12.12690925598145 1.5 8.485639572143555 3.008260726928711 5.746950149536133 5.746950149536133 C 3.008260726928711 8.485639572143555 1.5 12.12690925598145 1.5 16 C 1.5 19.87308883666992 3.008260726928711 23.51436042785645 5.746950149536133 26.25304985046387 C 8.485639572143555 28.99173927307129 12.12690925598145 30.5 16 30.5 C 19.87308883666992 30.5 23.51436042785645 28.99173927307129 26.25304985046387 26.25304985046387 C 28.99173927307129 23.51436042785645 30.5 19.87308883666992 30.5 16 C 30.5 12.12690925598145 28.99173927307129 8.485639572143555 26.25304985046387 5.746950149536133 C 23.51436042785645 3.008260726928711 19.87308883666992 1.5 16 1.5 M 16 0 C 24.83654975891113 0 32 7.163440704345703 32 16 C 32 24.83654975891113 24.83654975891113 32 16 32 C 7.163440704345703 32 0 24.83654975891113 0 16 C 0 7.163440704345703 7.163440704345703 0 16 0 Z" stroke="none" fill="red"/>
          </g>
        </g>
      </g>
      <g id="X-2" data-name="X" transform="translate(184.22 304.591)" clip-path="url(#clip-path-2)">
        <g id="X-3" data-name="X" transform="translate(-0.022 0.055)" fill="none">
          <path d="M.637,15.9a.693.693,0,0,1-.1-.963l6.705-6.7-7-7A.75.75,0,0,1,1.3.165l7,7L10.372,5.1l3.309-3.309L15.232.241a.691.691,0,0,1,.962.1.691.691,0,0,1,.1.962L9.366,8.228,15.8,14.66a.75.75,0,0,1-1.06,1.061L8.3,9.289,1.6,15.994a.546.546,0,0,1-.392.154A.825.825,0,0,1,.637,15.9Z" stroke="none"/>
          <path d="M 1.208150029182434 16.14753341674805 C 1.013630032539368 16.14754486083984 0.8034700751304626 16.06156349182129 0.6372000575065613 15.8958044052124 C 0.344700038433075 15.60240459442139 0.3006000518798828 15.17130470275879 0.5391000509262085 14.93280410766602 L 7.244100093841553 8.227804183959961 L 0.2421000450849533 1.225804328918457 C -0.05129995569586754 0.9324043393135071 -0.05129995569586754 0.4572043418884277 0.2421000450849533 0.1647043377161026 C 0.3883500397205353 0.01845434308052063 0.5802750587463379 -0.05467065796256065 0.7722000479698181 -0.05467065796256065 C 0.9641250371932983 -0.05467065796256065 1.156050086021423 0.01845434308052063 1.302300095558167 0.1647043377161026 L 8.304750442504883 7.167154312133789 L 10.37160015106201 5.100304126739502 C 10.37160015106201 5.100304126739502 12.46679973602295 3.006004333496094 13.68089962005615 1.791004300117493 C 14.89589977264404 0.5760043263435364 15.23159980773926 0.2412043511867523 15.23159980773926 0.2412043511867523 C 15.33507061004639 0.1377340108156204 15.47480010986328 0.08728200197219849 15.6237268447876 0.08728200197219849 C 15.81807708740234 0.08728200197219849 16.02809715270996 0.1731923818588257 16.19370079040527 0.3393043577671051 C 16.4862003326416 0.631804347038269 16.53030014038086 1.062904357910156 16.29179954528809 1.301404356956482 L 9.365610122680664 8.22801399230957 L 15.79769992828369 14.66010475158691 C 16.09110069274902 14.95350456237793 16.09110069274902 15.4278039932251 15.79769992828369 15.72120475769043 C 15.65145015716553 15.86745452880859 15.4595251083374 15.94057941436768 15.26760005950928 15.94057941436768 C 15.07567501068115 15.94057941436768 14.88374996185303 15.86745452880859 14.73750019073486 15.72120475769043 L 8.304989814758301 9.288694381713867 L 1.600200057029724 15.99390411376953 C 1.496470093727112 16.09724426269531 1.356870055198669 16.14752388000488 1.208150029182434 16.14753341674805 Z" stroke="none" fill="red"/>
        </g>
      </g>
    </g>
  </g>
</svg>
