<svg xmlns="http://www.w3.org/2000/svg" width="32" height="32" viewBox="0 0 32 32">
  <g id="路径_18" data-name="路径 18" fill="none">
    <path d="M16,0A16,16,0,1,1,0,16,16,16,0,0,1,16,0Z" stroke="none"/>
    <path d="M 16 1.5 C 12.12690925598145 1.5 8.485639572143555 3.008260726928711 5.746950149536133 5.746950149536133 C 3.008260726928711 8.485639572143555 1.5 12.12690925598145 1.5 16 C 1.5 19.87308883666992 3.008260726928711 23.51436042785645 5.746950149536133 26.25304985046387 C 8.485639572143555 28.99173927307129 12.12690925598145 30.5 16 30.5 C 19.87308883666992 30.5 23.51436042785645 28.99173927307129 26.25304985046387 26.25304985046387 C 28.99173927307129 23.51436042785645 30.5 19.87308883666992 30.5 16 C 30.5 12.12690925598145 28.99173927307129 8.485639572143555 26.25304985046387 5.746950149536133 C 23.51436042785645 3.008260726928711 19.87308883666992 1.5 16 1.5 M 16 0 C 24.83654975891113 0 32 7.163440704345703 32 16 C 32 24.83654975891113 24.83654975891113 32 16 32 C 7.163440704345703 32 0 24.83654975891113 0 16 C 0 7.163440704345703 7.163440704345703 0 16 0 Z" stroke="none" fill="red"/>
  </g>
</svg>
